<mxfile host="app.diagrams.net" agent="Mozilla/5.0 (Windows NT 10.0; Win64; x64) AppleWebKit/537.36 (KHTML, like Gecko) Chrome/131.0.0.0 Safari/537.36" version="24.9.0">
  <diagram name="Page-1" id="q9HQVtTLLPvlTaaTOyJj">
    <mxGraphModel dx="2659" dy="2139" grid="1" gridSize="10" guides="1" tooltips="1" connect="1" arrows="1" fold="1" page="1" pageScale="1" pageWidth="860" pageHeight="1100" math="0" shadow="0">
      <root>
        <mxCell id="0" />
        <mxCell id="1" parent="0" />
        <mxCell id="LYAmF5iR7BD4wiCwuDUf-48" style="edgeStyle=none;rounded=0;orthogonalLoop=1;jettySize=auto;html=1;exitX=0.5;exitY=1;exitDx=0;exitDy=0;entryX=0.5;entryY=0;entryDx=0;entryDy=0;" edge="1" parent="1" source="LYAmF5iR7BD4wiCwuDUf-1" target="LYAmF5iR7BD4wiCwuDUf-3">
          <mxGeometry relative="1" as="geometry" />
        </mxCell>
        <mxCell id="LYAmF5iR7BD4wiCwuDUf-49" style="edgeStyle=none;rounded=0;orthogonalLoop=1;jettySize=auto;html=1;exitX=0.75;exitY=1;exitDx=0;exitDy=0;entryX=0.5;entryY=0;entryDx=0;entryDy=0;" edge="1" parent="1" source="LYAmF5iR7BD4wiCwuDUf-1" target="LYAmF5iR7BD4wiCwuDUf-4">
          <mxGeometry relative="1" as="geometry" />
        </mxCell>
        <mxCell id="LYAmF5iR7BD4wiCwuDUf-1" value="&lt;b&gt;&lt;font style=&quot;font-size: 16px;&quot;&gt;Achieve Device Surveillance&lt;/font&gt;&lt;/b&gt;" style="rounded=0;whiteSpace=wrap;html=1;fillColor=#fa6800;fontColor=#000000;strokeColor=#C73500;" vertex="1" parent="1">
          <mxGeometry x="310" y="90" width="160" height="60" as="geometry" />
        </mxCell>
        <mxCell id="LYAmF5iR7BD4wiCwuDUf-41" style="edgeStyle=none;rounded=0;orthogonalLoop=1;jettySize=auto;html=1;exitX=0.25;exitY=1;exitDx=0;exitDy=0;entryX=0.5;entryY=0;entryDx=0;entryDy=0;" edge="1" parent="1" source="LYAmF5iR7BD4wiCwuDUf-2" target="LYAmF5iR7BD4wiCwuDUf-6">
          <mxGeometry relative="1" as="geometry" />
        </mxCell>
        <mxCell id="LYAmF5iR7BD4wiCwuDUf-42" style="edgeStyle=none;rounded=0;orthogonalLoop=1;jettySize=auto;html=1;exitX=0.5;exitY=1;exitDx=0;exitDy=0;entryX=0.5;entryY=0;entryDx=0;entryDy=0;" edge="1" parent="1" source="LYAmF5iR7BD4wiCwuDUf-2" target="LYAmF5iR7BD4wiCwuDUf-5">
          <mxGeometry relative="1" as="geometry" />
        </mxCell>
        <mxCell id="LYAmF5iR7BD4wiCwuDUf-43" style="edgeStyle=none;rounded=0;orthogonalLoop=1;jettySize=auto;html=1;exitX=0.75;exitY=1;exitDx=0;exitDy=0;entryX=0.5;entryY=0;entryDx=0;entryDy=0;" edge="1" parent="1" source="LYAmF5iR7BD4wiCwuDUf-2" target="LYAmF5iR7BD4wiCwuDUf-7">
          <mxGeometry relative="1" as="geometry" />
        </mxCell>
        <mxCell id="LYAmF5iR7BD4wiCwuDUf-2" value="&lt;font style=&quot;font-size: 16px;&quot;&gt;&lt;b&gt;Gain Access to device&lt;/b&gt;&lt;/font&gt;" style="rounded=0;whiteSpace=wrap;html=1;fillColor=#0050ef;fontColor=#ffffff;strokeColor=#001DBC;" vertex="1" parent="1">
          <mxGeometry x="-20" y="280" width="180" height="60" as="geometry" />
        </mxCell>
        <mxCell id="LYAmF5iR7BD4wiCwuDUf-40" style="edgeStyle=none;rounded=0;orthogonalLoop=1;jettySize=auto;html=1;exitX=0.5;exitY=1;exitDx=0;exitDy=0;entryX=0.5;entryY=0;entryDx=0;entryDy=0;" edge="1" parent="1" source="LYAmF5iR7BD4wiCwuDUf-3" target="LYAmF5iR7BD4wiCwuDUf-9">
          <mxGeometry relative="1" as="geometry" />
        </mxCell>
        <mxCell id="LYAmF5iR7BD4wiCwuDUf-3" value="&lt;font style=&quot;font-size: 16px;&quot;&gt;&lt;b&gt;Installation of Spyware&lt;/b&gt;&lt;/font&gt;" style="rounded=0;whiteSpace=wrap;html=1;fillColor=#6d8764;fontColor=#ffffff;strokeColor=#3A5431;" vertex="1" parent="1">
          <mxGeometry x="300" y="280" width="180" height="60" as="geometry" />
        </mxCell>
        <mxCell id="LYAmF5iR7BD4wiCwuDUf-46" style="edgeStyle=none;rounded=0;orthogonalLoop=1;jettySize=auto;html=1;exitX=0.75;exitY=1;exitDx=0;exitDy=0;entryX=0.5;entryY=0;entryDx=0;entryDy=0;" edge="1" parent="1" source="LYAmF5iR7BD4wiCwuDUf-4" target="LYAmF5iR7BD4wiCwuDUf-12">
          <mxGeometry relative="1" as="geometry" />
        </mxCell>
        <mxCell id="LYAmF5iR7BD4wiCwuDUf-4" value="&lt;font style=&quot;font-size: 16px;&quot;&gt;&lt;b&gt;Data Collection and Monitoring&lt;/b&gt;&lt;/font&gt;" style="rounded=0;whiteSpace=wrap;html=1;fillColor=#a20025;fontColor=#ffffff;strokeColor=#6F0000;" vertex="1" parent="1">
          <mxGeometry x="660" y="280" width="170" height="60" as="geometry" />
        </mxCell>
        <mxCell id="LYAmF5iR7BD4wiCwuDUf-5" value="&lt;font style=&quot;font-size: 15px;&quot;&gt;Exploit Zero-Day Vulnerabilities&lt;/font&gt;" style="rounded=0;whiteSpace=wrap;html=1;fillColor=#b0e3e6;strokeColor=#0e8088;" vertex="1" parent="1">
          <mxGeometry x="-80" y="530" width="130" height="60" as="geometry" />
        </mxCell>
        <mxCell id="LYAmF5iR7BD4wiCwuDUf-6" value="&lt;font style=&quot;font-size: 15px;&quot;&gt;Use of zero-click exploits&lt;/font&gt;" style="rounded=0;whiteSpace=wrap;html=1;fillColor=#b0e3e6;strokeColor=#0e8088;" vertex="1" parent="1">
          <mxGeometry x="-220" y="530" width="120" height="60" as="geometry" />
        </mxCell>
        <mxCell id="LYAmF5iR7BD4wiCwuDUf-7" value="&lt;font style=&quot;font-size: 15px;&quot;&gt;Bypassing encryption&lt;/font&gt;" style="rounded=0;whiteSpace=wrap;html=1;fillColor=#b0e3e6;strokeColor=#0e8088;" vertex="1" parent="1">
          <mxGeometry x="70" y="530" width="120" height="60" as="geometry" />
        </mxCell>
        <mxCell id="LYAmF5iR7BD4wiCwuDUf-8" value="&lt;font style=&quot;font-size: 15px;&quot;&gt;Stealthy Installation&lt;/font&gt;" style="rounded=0;whiteSpace=wrap;html=1;fillColor=#bac8d3;strokeColor=#23445d;" vertex="1" parent="1">
          <mxGeometry x="250" y="530" width="120" height="60" as="geometry" />
        </mxCell>
        <mxCell id="LYAmF5iR7BD4wiCwuDUf-9" value="&lt;font style=&quot;font-size: 15px;&quot;&gt;Bypass security features&lt;/font&gt;" style="rounded=0;whiteSpace=wrap;html=1;fillColor=#bac8d3;strokeColor=#23445d;" vertex="1" parent="1">
          <mxGeometry x="390" y="530" width="120" height="60" as="geometry" />
        </mxCell>
        <mxCell id="LYAmF5iR7BD4wiCwuDUf-38" style="edgeStyle=none;rounded=0;orthogonalLoop=1;jettySize=auto;html=1;exitX=0.5;exitY=1;exitDx=0;exitDy=0;entryX=0.5;entryY=0;entryDx=0;entryDy=0;" edge="1" parent="1" source="LYAmF5iR7BD4wiCwuDUf-10" target="LYAmF5iR7BD4wiCwuDUf-55">
          <mxGeometry relative="1" as="geometry">
            <mxPoint x="545" y="680" as="targetPoint" />
          </mxGeometry>
        </mxCell>
        <mxCell id="LYAmF5iR7BD4wiCwuDUf-57" style="edgeStyle=none;rounded=0;orthogonalLoop=1;jettySize=auto;html=1;exitX=0.5;exitY=1;exitDx=0;exitDy=0;entryX=0.5;entryY=0;entryDx=0;entryDy=0;" edge="1" parent="1" source="LYAmF5iR7BD4wiCwuDUf-10" target="LYAmF5iR7BD4wiCwuDUf-56">
          <mxGeometry relative="1" as="geometry" />
        </mxCell>
        <mxCell id="LYAmF5iR7BD4wiCwuDUf-10" value="&lt;font style=&quot;font-size: 15px;&quot;&gt;Reading Sensitive Data&lt;/font&gt;" style="rounded=0;whiteSpace=wrap;html=1;fillColor=#fad9d5;strokeColor=#ae4132;" vertex="1" parent="1">
          <mxGeometry x="580" y="530" width="120" height="60" as="geometry" />
        </mxCell>
        <mxCell id="LYAmF5iR7BD4wiCwuDUf-63" style="edgeStyle=none;rounded=0;orthogonalLoop=1;jettySize=auto;html=1;exitX=0.5;exitY=1;exitDx=0;exitDy=0;entryX=0.5;entryY=0;entryDx=0;entryDy=0;" edge="1" parent="1" source="LYAmF5iR7BD4wiCwuDUf-11" target="LYAmF5iR7BD4wiCwuDUf-62">
          <mxGeometry relative="1" as="geometry" />
        </mxCell>
        <mxCell id="LYAmF5iR7BD4wiCwuDUf-11" value="&lt;font style=&quot;font-size: 15px;&quot;&gt;Accessing Device inputs&lt;/font&gt;" style="rounded=0;whiteSpace=wrap;html=1;fillColor=#fad9d5;strokeColor=#ae4132;" vertex="1" parent="1">
          <mxGeometry x="720" y="530" width="150" height="60" as="geometry" />
        </mxCell>
        <mxCell id="LYAmF5iR7BD4wiCwuDUf-12" value="&lt;font style=&quot;font-size: 15px;&quot;&gt;Exfiltrating data to external servers&lt;/font&gt;" style="rounded=0;whiteSpace=wrap;html=1;fillColor=#fad9d5;strokeColor=#ae4132;" vertex="1" parent="1">
          <mxGeometry x="890" y="530" width="160" height="60" as="geometry" />
        </mxCell>
        <mxCell id="LYAmF5iR7BD4wiCwuDUf-28" value="" style="edgeStyle=none;rounded=0;orthogonalLoop=1;jettySize=auto;html=1;" edge="1" parent="1" target="LYAmF5iR7BD4wiCwuDUf-25">
          <mxGeometry relative="1" as="geometry">
            <mxPoint x="999.8275862068963" y="1570" as="sourcePoint" />
          </mxGeometry>
        </mxCell>
        <mxCell id="LYAmF5iR7BD4wiCwuDUf-30" style="edgeStyle=none;rounded=0;orthogonalLoop=1;jettySize=auto;html=1;exitX=0.25;exitY=1;exitDx=0;exitDy=0;entryX=0.5;entryY=0;entryDx=0;entryDy=0;" edge="1" parent="1" target="LYAmF5iR7BD4wiCwuDUf-24">
          <mxGeometry relative="1" as="geometry">
            <mxPoint x="977.5" y="1570" as="sourcePoint" />
          </mxGeometry>
        </mxCell>
        <mxCell id="LYAmF5iR7BD4wiCwuDUf-31" style="edgeStyle=none;rounded=0;orthogonalLoop=1;jettySize=auto;html=1;exitX=0.75;exitY=1;exitDx=0;exitDy=0;entryX=0.5;entryY=0;entryDx=0;entryDy=0;" edge="1" parent="1" target="LYAmF5iR7BD4wiCwuDUf-26">
          <mxGeometry relative="1" as="geometry">
            <mxPoint x="1012.5" y="1570" as="sourcePoint" />
          </mxGeometry>
        </mxCell>
        <mxCell id="LYAmF5iR7BD4wiCwuDUf-24" value="&lt;font style=&quot;font-size: 15px;&quot;&gt;Location&lt;/font&gt;" style="rounded=0;whiteSpace=wrap;html=1;fillColor=#d5e8d4;gradientColor=#97d077;strokeColor=#82b366;" vertex="1" parent="1">
          <mxGeometry x="870" y="1680" width="100" height="30" as="geometry" />
        </mxCell>
        <mxCell id="LYAmF5iR7BD4wiCwuDUf-25" value="&lt;font style=&quot;font-size: 15px;&quot;&gt;Microphone&lt;/font&gt;" style="rounded=0;whiteSpace=wrap;html=1;fillColor=#d5e8d4;gradientColor=#97d077;strokeColor=#82b366;" vertex="1" parent="1">
          <mxGeometry x="980" y="1680" width="100" height="30" as="geometry" />
        </mxCell>
        <mxCell id="LYAmF5iR7BD4wiCwuDUf-26" value="&lt;font style=&quot;font-size: 15px;&quot;&gt;Camera&lt;/font&gt;" style="rounded=0;whiteSpace=wrap;html=1;fillColor=#d5e8d4;gradientColor=#97d077;strokeColor=#82b366;" vertex="1" parent="1">
          <mxGeometry x="1090" y="1680" width="100" height="30" as="geometry" />
        </mxCell>
        <mxCell id="LYAmF5iR7BD4wiCwuDUf-32" value="&lt;font style=&quot;font-size: 14px;&quot;&gt;Emails&lt;/font&gt;" style="rounded=0;whiteSpace=wrap;html=1;fillColor=#fff2cc;gradientColor=#ffd966;strokeColor=#d6b656;" vertex="1" parent="1">
          <mxGeometry x="760" y="1680" width="70" height="30" as="geometry" />
        </mxCell>
        <mxCell id="LYAmF5iR7BD4wiCwuDUf-36" style="edgeStyle=none;rounded=0;orthogonalLoop=1;jettySize=auto;html=1;exitX=0.5;exitY=1;exitDx=0;exitDy=0;entryX=0.5;entryY=0;entryDx=0;entryDy=0;" edge="1" parent="1" target="LYAmF5iR7BD4wiCwuDUf-34">
          <mxGeometry relative="1" as="geometry">
            <mxPoint x="745" y="1580" as="sourcePoint" />
          </mxGeometry>
        </mxCell>
        <mxCell id="LYAmF5iR7BD4wiCwuDUf-37" style="edgeStyle=none;rounded=0;orthogonalLoop=1;jettySize=auto;html=1;exitX=0.5;exitY=1;exitDx=0;exitDy=0;entryX=0.5;entryY=0;entryDx=0;entryDy=0;" edge="1" parent="1" target="LYAmF5iR7BD4wiCwuDUf-32">
          <mxGeometry relative="1" as="geometry">
            <mxPoint x="745" y="1580" as="sourcePoint" />
          </mxGeometry>
        </mxCell>
        <mxCell id="LYAmF5iR7BD4wiCwuDUf-34" value="&lt;font style=&quot;font-size: 14px;&quot;&gt;Messages&lt;/font&gt;" style="rounded=0;whiteSpace=wrap;html=1;fillColor=#fff2cc;gradientColor=#ffd966;strokeColor=#d6b656;" vertex="1" parent="1">
          <mxGeometry x="660" y="1680" width="80" height="30" as="geometry" />
        </mxCell>
        <mxCell id="LYAmF5iR7BD4wiCwuDUf-39" style="edgeStyle=none;rounded=0;orthogonalLoop=1;jettySize=auto;html=1;exitX=0.5;exitY=1;exitDx=0;exitDy=0;entryX=0.599;entryY=-0.033;entryDx=0;entryDy=0;entryPerimeter=0;" edge="1" parent="1" source="LYAmF5iR7BD4wiCwuDUf-3" target="LYAmF5iR7BD4wiCwuDUf-8">
          <mxGeometry relative="1" as="geometry" />
        </mxCell>
        <mxCell id="LYAmF5iR7BD4wiCwuDUf-44" style="edgeStyle=none;rounded=0;orthogonalLoop=1;jettySize=auto;html=1;exitX=0.25;exitY=1;exitDx=0;exitDy=0;entryX=0.667;entryY=0;entryDx=0;entryDy=0;entryPerimeter=0;" edge="1" parent="1" source="LYAmF5iR7BD4wiCwuDUf-4" target="LYAmF5iR7BD4wiCwuDUf-10">
          <mxGeometry relative="1" as="geometry" />
        </mxCell>
        <mxCell id="LYAmF5iR7BD4wiCwuDUf-45" style="edgeStyle=none;rounded=0;orthogonalLoop=1;jettySize=auto;html=1;exitX=0.5;exitY=1;exitDx=0;exitDy=0;entryX=0.44;entryY=0.002;entryDx=0;entryDy=0;entryPerimeter=0;" edge="1" parent="1" source="LYAmF5iR7BD4wiCwuDUf-4" target="LYAmF5iR7BD4wiCwuDUf-11">
          <mxGeometry relative="1" as="geometry" />
        </mxCell>
        <mxCell id="LYAmF5iR7BD4wiCwuDUf-47" style="edgeStyle=none;rounded=0;orthogonalLoop=1;jettySize=auto;html=1;exitX=0.25;exitY=1;exitDx=0;exitDy=0;entryX=0.558;entryY=-0.056;entryDx=0;entryDy=0;entryPerimeter=0;" edge="1" parent="1" source="LYAmF5iR7BD4wiCwuDUf-1" target="LYAmF5iR7BD4wiCwuDUf-2">
          <mxGeometry relative="1" as="geometry" />
        </mxCell>
        <mxCell id="LYAmF5iR7BD4wiCwuDUf-51" value="&lt;font style=&quot;font-size: 25px;&quot;&gt;&lt;b&gt;Pegasus Attack Tree Diagram&lt;/b&gt;&lt;/font&gt;" style="shape=note;whiteSpace=wrap;html=1;backgroundOutline=1;darkOpacity=0.05;fillColor=#ffcc99;strokeColor=#36393d;fillStyle=solid;direction=west;gradientDirection=north;shadow=1;size=20;pointerEvents=1;" vertex="1" parent="1">
          <mxGeometry x="140" y="-110" width="490" height="70" as="geometry" />
        </mxCell>
        <mxCell id="LYAmF5iR7BD4wiCwuDUf-55" value="&lt;font style=&quot;font-size: 15px;&quot;&gt;Keylogging&lt;/font&gt;" style="rounded=0;whiteSpace=wrap;html=1;" vertex="1" parent="1">
          <mxGeometry x="490" y="690" width="105" height="40" as="geometry" />
        </mxCell>
        <mxCell id="LYAmF5iR7BD4wiCwuDUf-56" value="&lt;font style=&quot;font-size: 15px;&quot;&gt;Accessing cached data&lt;/font&gt;" style="rounded=0;whiteSpace=wrap;html=1;" vertex="1" parent="1">
          <mxGeometry x="610" y="690" width="160" height="40" as="geometry" />
        </mxCell>
        <mxCell id="LYAmF5iR7BD4wiCwuDUf-62" value="&lt;font style=&quot;font-size: 15px;&quot;&gt;Background Input Monitoring&lt;/font&gt;" style="rounded=0;whiteSpace=wrap;html=1;" vertex="1" parent="1">
          <mxGeometry x="790" y="690" width="140" height="40" as="geometry" />
        </mxCell>
      </root>
    </mxGraphModel>
  </diagram>
</mxfile>
